<?xml version="1.0" encoding="UTF-8" standalone="no"?>
<svg
   version="1.0"
   width="1028.5718"
   height="743.13745"
   viewBox="0 0 771.42883 557.35309"
   preserveAspectRatio="xMidYMid"
   id="svg528"
   sodipodi:docname="logo.svg"
   inkscape:export-filename="logop.svg"
   inkscape:export-xdpi="96"
   inkscape:export-ydpi="96"
   xmlns:inkscape="http://www.inkscape.org/namespaces/inkscape"
   xmlns:sodipodi="http://sodipodi.sourceforge.net/DTD/sodipodi-0.dtd"
   xmlns:xlink="http://www.w3.org/1999/xlink"
   xmlns="http://www.w3.org/2000/svg"
   xmlns:svg="http://www.w3.org/2000/svg">
  <style
     id="style532"></style>
  <defs
     id="defs528">
    <linearGradient
       id="linearGradient530"
       inkscape:swatch="gradient">
      <stop
         style="stop-color:#357a4f;stop-opacity:0.37444937;"
         offset="0"
         id="stop530" />
      <stop
         style="stop-color:#357a4f;stop-opacity:0;"
         offset="1"
         id="stop531" />
    </linearGradient>
    <color-profile
       name="sRGB-IEC61966-2.1"
       xlink:href="../../../Windows/system32/spool/drivers/color/sRGB%20Color%20Space%20Profile.icm"
       id="color-profile2" />
  </defs>
  <sodipodi:namedview
     id="namedview528"
     pagecolor="#000000"
     bordercolor="#000000"
     borderopacity="0.25"
     inkscape:showpageshadow="2"
     inkscape:pageopacity="0.0"
     inkscape:pagecheckerboard="0"
     inkscape:deskcolor="#d1d1d1"
     inkscape:document-units="px" />
  <path
     d="m 378.00056,143.69426 c -43.50041,12.09207 -68.42252,31.79763 -179.43918,141.52185 l -107.844771,107.0371 17.672041,17.91417 17.67203,17.91416 111.46981,-109.27636 c 67.06314,-66.2824 118.26674,-112.85921 130.04811,-118.68131 40.78163,-20.15343 95.61027,-15.67489 131.40748,11.19634 7.7032,5.82211 15.85954,10.74852 17.67206,10.74852 1.81249,0 10.42195,-7.16568 18.57828,-16.12276 14.50015,-15.67489 14.95328,-17.01844 7.25008,-25.07983 -4.07818,-4.47853 -22.20335,-15.22704 -39.42226,-23.73626 -39.42225,-19.2577 -85.64142,-24.1841 -125.06368,-13.43562 z"
     id="path405"
     style="fill:#5ac98b;fill-opacity:1;stroke:#5ac98b;stroke-width:6.75728;stroke-dasharray:none;stroke-opacity:0.352941" />
  <path
     d="M 345.51158,9.0745018 C 293.67033,23.832854 263.96964,47.883577 131.6664,181.80204 L 3.1433837,312.44084 24.203889,334.30499 45.26435,356.1693 178.10757,222.79745 C 258.02948,141.8997 319.051,85.052717 333.09125,77.946887 c 48.60119,-24.59731 113.94273,-19.13124 156.60373,13.66516 9.18026,7.10581 18.90053,13.118483 21.06054,13.118483 2.16007,0 12.42033,-8.745743 22.14057,-19.677813 17.28038,-19.13122 17.8204,-20.77103 8.64015,-30.60994 -4.86008,-5.466 -26.46058,-18.5846 -46.98113,-28.97005 C 447.57399,1.9686238 392.49268,-4.0440292 345.51158,9.0745018 Z"
     id="path405-2"
     style="fill:#5ac98b;fill-opacity:0.352941;stroke:#5ac98b;stroke-width:4.50483;stroke-dasharray:none;stroke-opacity:1" />
  <path
     d="m 427.02362,542.85373 c 47.06305,-18.86548 78.07803,-52.349 214.66711,-181.91418 L 766.74838,238.37301 752.39904,222.47124 738.04969,206.56925 601.0903,335.73857 c -82.51084,78.26798 -144.66683,133.86534 -157.94529,141.60436 -45.96416,26.78917 -101.1625,30.20917 -132.19692,7.71911 -7.8691,-5.29372 -100.13364,-73.66203 -83.41666,-67.65487 1.76225,0.63327 -12.16755,9.88078 -22.38985,20.3245 -20.38578,21.23159 -19.57469,21.60093 -20.38578,21.23159 0,0 94.84217,76.38405 110.69301,82.64277 36.33675,14.09813 88.9677,18.12782 131.57481,1.2477 z"
     id="path405-2-8"
     style="fill:#5ac98b;fill-opacity:1;stroke:#5ac98b;stroke-width:6.75728;stroke-dasharray:none;stroke-opacity:0.352941"
     sodipodi:nodetypes="ccccccscscccc" />
  <path
     d="M 561.51792,262.37557 C 437.3605,384.19184 426.03227,392.25321 372.10989,392.25321 c -32.62531,0 -54.82864,-6.7178 -78.39138,-24.63196 l -14.04699,-10.7485 -17.21892,17.46631 -17.21891,17.46631 13.14075,11.19634 c 35.79721,30.45407 93.34462,46.12895 143.18884,38.06759 53.01614,-8.50923 70.23505,-21.04913 191.22057,-140.17829 61.17244,-60.46028 111.46979,-111.51565 111.46979,-113.75491 0,-3.58282 -28.094,-32.24547 -31.71905,-32.24547 -1.35938,0 -51.2036,48.36821 -111.01667,107.48494 z"
     id="path406"
     style="fill:#5ac98b;fill-opacity:0.352941;stroke:#5ac98b;stroke-width:3.37863;stroke-dasharray:none;stroke-opacity:1" />
  <path
     d="m 352.62533,246.25284 c -18.12518,17.46629 -19.93769,21.49699 -19.93769,41.20256 0,13.88347 3.1719,27.31909 9.06259,36.72401 35.34407,57.32531 122.3449,32.69334 122.3449,-34.93261 0,-37.61972 -26.73463,-62.69956 -67.51627,-62.69956 -22.65645,0 -25.82837,1.34357 -43.95353,19.7056 z"
     id="path417"
     style="fill:#008000;fill-opacity:0.764706;stroke:none;stroke-width:0.450483" />
  <g
     id="g529"
     transform="matrix(4.5312928,0,0,4.4785396,-1341.2852,-1103.2153)">
    <ellipse
       style="fill:#000000;fill-opacity:1;fill-rule:evenodd;stroke:none;stroke-width:0.627301;stroke-dasharray:7.52761, 0.627301;stroke-dashoffset:0.439111;stroke-opacity:1;paint-order:markers fill stroke"
       id="path529"
       cx="387.98135"
       cy="302.94321"
       rx="2.8162169"
       ry="2.5141706" />
    <ellipse
       style="fill:#ffffff;fill-opacity:1;fill-rule:evenodd;stroke:none;stroke-width:1.125;stroke-dasharray:13.5, 1.125;stroke-dashoffset:0.7875;stroke-opacity:1;paint-order:markers fill stroke"
       id="path528"
       cx="388.66376"
       cy="301.83578"
       rx="1.3531882"
       ry="1.331822" />
  </g>
  <ellipse
     style="fill:#ffffff;fill-opacity:1;fill-rule:evenodd;stroke:none;stroke-width:8.28277;stroke-dasharray:99.393, 8.28277;stroke-dashoffset:5.7979;stroke-opacity:1;paint-order:markers fill stroke"
     id="path530"
     cx="414.56854"
     cy="257.55716"
     rx="1.8185358"
     ry="1.4856119" />
</svg>
